<svg xmlns="http://www.w3.org/2000/svg" width="15" height="15" viewBox="0 0 18 18" fill="none">
  <path d="M15.375 9.75H12.375C10.9275 9.75 9.75 10.9275 9.75 12.375V13.5H7.125C5.6775 13.5 4.5 12.3225 4.5 10.875V8.25H5.625C7.0725 8.25 8.25 7.0725 8.25 5.625V2.625C8.25 1.1775 7.0725 0 5.625 0H2.625C1.1775 0 0 1.1775 0 2.625V5.625C0 7.0725 1.1775 8.25 2.625 8.25H3.75V10.875C3.75 12.735 5.265 14.25 7.125 14.25H9.75V15.375C9.75 16.8225 10.9275 18 12.375 18H15.375C16.8225 18 18 16.8225 18 15.375V12.375C18 10.9275 16.8225 9.75 15.375 9.75ZM0.75 5.625V2.625C0.75 1.59 1.59 0.75 2.625 0.75H5.625C6.66 0.75 7.5 1.59 7.5 2.625V5.625C7.5 6.66 6.66 7.5 5.625 7.5H2.625C1.59 7.5 0.75 6.66 0.75 5.625ZM17.25 15.375C17.25 16.41 16.41 17.25 15.375 17.25H12.375C11.34 17.25 10.5 16.41 10.5 15.375V12.375C10.5 11.34 11.34 10.5 12.375 10.5H15.375C16.41 10.5 17.25 11.34 17.25 12.375V15.375Z" fill="#1E1E1E"/>
</svg>
